<?xml version="1.0" encoding="UTF-8" standalone="no"?>
<!-- Created with Inkscape (http://www.inkscape.org/) -->

<svg
   xmlns:dc="http://purl.org/dc/elements/1.1/"
   xmlns:cc="http://creativecommons.org/ns#"
   xmlns:rdf="http://www.w3.org/1999/02/22-rdf-syntax-ns#"
   xmlns:svg="http://www.w3.org/2000/svg"
   xmlns="http://www.w3.org/2000/svg"
   xmlns:sodipodi="http://sodipodi.sourceforge.net/DTD/sodipodi-0.dtd"
   xmlns:inkscape="http://www.inkscape.org/namespaces/inkscape"
   width="135"
   height="135"
   id="svg3509"
   version="1.1"
   inkscape:version="0.92.2 2405546, 2018-03-11"
   sodipodi:docname="kicad_logo_square_paths.svg"
   inkscape:export-filename="/home/nickoe/kicad-doc-website/_source/img/guide-icons/plugins.png"
   inkscape:export-xdpi="68.26667"
   inkscape:export-ydpi="68.26667"
   viewBox="0 0 126.56251 126.5625">
  <defs
     id="defs3511" />
  <sodipodi:namedview
     id="base"
     pagecolor="#ffffff"
     bordercolor="#666666"
     borderopacity="1.0"
     inkscape:pageopacity="0.0"
     inkscape:pageshadow="2"
     inkscape:zoom="0.98994949"
     inkscape:cx="119.84148"
     inkscape:cy="134.19259"
     inkscape:document-units="px"
     inkscape:current-layer="layer1"
     showgrid="true"
     inkscape:window-width="1916"
     inkscape:window-height="1041"
     inkscape:window-x="1920"
     inkscape:window-y="18"
     inkscape:window-maximized="0"
     inkscape:snap-grids="false"
     showguides="true"
     inkscape:guide-bbox="true"
     inkscape:snap-to-guides="false"
     fit-margin-top="0"
     fit-margin-left="0"
     fit-margin-right="0"
     fit-margin-bottom="0" />
  <metadata
     id="metadata3514">
    <rdf:RDF>
      <cc:Work
         rdf:about="">
        <dc:format>image/svg+xml</dc:format>
        <dc:type
           rdf:resource="http://purl.org/dc/dcmitype/StillImage" />
        <dc:title></dc:title>
      </cc:Work>
    </rdf:RDF>
  </metadata>
  <g
     inkscape:label="Layer 1"
     inkscape:groupmode="layer"
     id="layer1"
     transform="translate(-48.327904,-889.57074)">
    <g
       id="g4528"
       transform="translate(2.734523,-0.23976407)">
      <path
         id="rect3438-4-1-6-9-8-4"
         d="M 51.678648,901.97614 H 166.07062 c 0.51273,0 0.9255,0.43179 0.9255,0.96814 v 109.79552 c 0,0.5364 -0.41277,0.9682 -0.9255,0.9682 H 51.678648 c -0.512727,0 -0.925501,-0.4318 -0.925501,-0.9682 V 902.94428 c 0,-0.53635 0.412774,-0.96814 0.925501,-0.96814 z"
         style="fill:#314cb0;fill-opacity:1;fill-rule:nonzero;stroke:#1d2d68;stroke-width:4.85048628;stroke-miterlimit:4;stroke-opacity:1"
         inkscape:connector-curvature="0" />
      <path
         d="m 80.269477,948.26032 16.927605,-21.41018 c 3.460178,-4.36453 5.190288,-7.62815 5.190348,-9.79088 -6e-5,-0.78633 -0.0984,-1.41546 -0.29491,-1.8874 h 29.54958 c -2.24136,1.25835 -5.0528,3.91251 -8.43431,7.96246 -0.90445,1.06175 -2.49694,3.00812 -4.77747,5.83914 l -22.176937,27.60321 26.482557,36.45038 c 1.61208,2.20197 3.65676,4.67918 6.13405,7.43165 0.66837,0.7078 1.63173,1.5532 2.89008,2.5362 h -30.31634 c 0.23587,-0.9044 0.35383,-1.7105 0.35389,-2.4183 -6e-5,-2.1626 -1.49425,-5.2886 -4.482575,-9.37797 L 80.269477,967.96004 v 23.5335 c -3.2e-5,5.4656 1.100949,9.29936 3.302948,11.50136 H 55.851259 c 1.533502,-1.5335 2.516521,-3.28331 2.949061,-5.24935 0.235913,-1.10098 0.353875,-3.16532 0.353887,-6.19303 v -64.9383 c -1.2e-5,-3.02763 -0.117974,-5.09197 -0.353887,-6.19303 -0.43254,-1.96596 -1.415559,-3.71573 -2.949061,-5.24933 h 27.721166 c -2.201999,2.20205 -3.30298,6.01617 -3.302948,11.44236 v 21.6461"
         style="font-style:normal;font-weight:normal;font-size:120.79350281px;line-height:122.00000286%;font-family:Sans;letter-spacing:0px;word-spacing:0px;fill:#ffffff;fill-opacity:1;stroke:none"
         id="path3008"
         inkscape:connector-curvature="0" />
      <path
         d="m 159.48123,938.46944 v 54.14474 c -3e-5,2.83111 0.0786,4.67918 0.23593,5.54423 0.31453,1.76944 1.14027,3.38159 2.47721,4.83649 h -25.95173 c 1.3369,-1.4549 2.16263,-3.06705 2.47721,-4.83649 0.15727,-0.86505 0.23591,-2.71312 0.23592,-5.54423 v -43.88201 c -1e-5,-2.83104 -0.0787,-4.65946 -0.23592,-5.48526 -0.31458,-1.73005 -1.12065,-3.32254 -2.41823,-4.77747 h 23.17961 M 149.2185,907.62227 c 3.26361,9e-5 6.03572,1.16006 8.31635,3.47989 2.3199,2.2807 3.47986,5.05281 3.47989,8.31635 -3e-5,3.34235 -1.14033,6.15378 -3.42091,8.43431 -2.24131,2.24136 -5.03308,3.362 -8.37533,3.36193 -3.26364,7e-5 -6.05541,-1.14023 -8.37533,-3.42091 -2.28061,-2.31985 -3.42092,-5.11162 -3.42091,-8.37533 -1e-5,-3.34218 1.12064,-6.13396 3.36193,-8.37533 2.28059,-2.28051 5.09203,-3.42082 8.43431,-3.42091"
         style="font-style:normal;font-weight:normal;font-size:120.79350281px;line-height:122.00000286%;font-family:Sans;letter-spacing:0px;word-spacing:0px;fill:#ffffff;fill-opacity:1;stroke:none"
         id="path3010"
         inkscape:connector-curvature="0" />
      <path
         id="rect4352-5-1"
         d="m 135.29004,906.65179 h 28.31517 v 27.03082 h -28.31517 z"
         style="fill:#314cb0;fill-opacity:1;fill-rule:nonzero;stroke:none"
         inkscape:connector-curvature="0" />
      <path
         id="path3552-6-3-7"
         d="m 161.16831,902.00507 c 0,6.60244 -5.36817,11.95472 -11.99015,11.95472 -6.62197,0 -11.99015,-5.35228 -11.99015,-11.95472 0,-6.60244 5.36818,-11.9548 11.99015,-11.9548 6.62198,0 11.99015,5.35236 11.99015,11.9548 z"
         style="fill:#ff7700;fill-opacity:1;fill-rule:nonzero;stroke:none"
         inkscape:connector-curvature="0" />
    </g>
  </g>
</svg>
